<svg width="48" height="60" xmlns="http://www.w3.org/2000/svg">
 <title>8-note</title>

 <g>
  <title>background</title>
  <rect fill="none" id="canvas_background" height="602" width="802" y="-1" x="-1"/>
 </g>
 <g>
  <title>Layer 1</title>
  <g id="svg_1">
   <path id="svg_2" d="m24,48a24,24 0 0 1 0,-48a20.25,20.25 0 0 1 2.26,0.11a22.2,22.2 0 0 1 4.3,0.81q0.42,0.1 0.9,0.27a22.77,22.77 0 0 1 3.09,1.26a21,21 0 0 1 1.87,1a1,1 0 1 1 -1.06,1.7c-0.57,-0.36 -1.18,-0.67 -1.7,-0.93a20.58,20.58 0 0 0 -2.84,-1.15a6.86,6.86 0 0 0 -0.82,-0.22a20.7,20.7 0 0 0 -4,-0.75a19.08,19.08 0 0 0 -2,-0.1a22,22 0 1 0 22,22c0,-0.35 0,-0.69 0,-1s0,-0.75 -0.08,-1.08s0,-0.47 -0.07,-0.66s0,-0.47 -0.09,-0.67c-0.09,-0.61 -0.2,-1.17 -0.33,-1.69a22.07,22.07 0 0 0 -3.43,-7.58a1,1 0 0 1 1.63,-1.15a24,24 0 0 1 3.72,8.22a16.65,16.65 0 0 1 0.36,1.84c0,0.2 0.07,0.45 0.1,0.7a7.37,7.37 0 0 1 0.08,0.78c0,0.33 0.08,0.73 0.09,1.11s0,0.8 0,1.18a24,24 0 0 1 -23.98,24z"/>
   <path id="svg_3" d="m24,41.1a17.1,17.1 0 0 1 0,-34.2a16.8,16.8 0 0 1 7.65,1.82a1,1 0 1 1 -0.9,1.78a14.9,14.9 0 0 0 -6.75,-1.6a15.09,15.09 0 1 0 13,7.48a1,1 0 1 1 1.72,-1a17.1,17.1 0 0 1 -14.72,25.72z"/>
   <path id="svg_4" d="m24,33.91a9.91,9.91 0 0 1 0,-19.82a9.4,9.4 0 0 1 2.05,0.22a1,1 0 0 1 0.77,1.19a1,1 0 0 1 -1.2,0.77a7.38,7.38 0 0 0 -1.62,-0.18a7.91,7.91 0 1 0 7.91,7.91a7.14,7.14 0 0 0 -0.31,-2.16a1,1 0 0 1 0.65,-1.25a1,1 0 0 1 1.26,0.65a9.12,9.12 0 0 1 0.4,2.76a9.91,9.91 0 0 1 -9.91,9.91z"/>
   <path id="svg_5" d="m25,24a1,1 0 0 1 -0.69,-0.27a1,1 0 0 1 0,-1.42l18,-19a1,1 0 1 1 1.46,1.38l-18,19a1,1 0 0 1 -0.77,0.31z"/>
   <path id="svg_6" d="m41,7a1,1 0 0 1 -1,-1l0,-4a1,1 0 0 1 2,0l0,4a1,1 0 0 1 -1,1z"/>
   <path id="svg_7" d="m45,7l-4,0a1,1 0 0 1 0,-2l4,0a1,1 0 0 1 0,2z"/>
  </g>
  <text id="svg_9" font-family="'Helvetica Neue', Helvetica, Arial-Unicode, Arial, Sans-serif" font-weight="bold" font-size="5px" fill="#000000" y="68" x="0">from the Noun Project</text>
 </g>
</svg>