<svg xmlns="http://www.w3.org/2000/svg" viewBox="0 0 48 60" x="0px" y="0px"><title>8-note</title><g data-name="19-Ecommerce"><path d="M24,48A24,24,0,0,1,24,0a20.25,20.25,0,0,1,2.26.11,22.2,22.2,0,0,1,4.3.81q.42.1.9.27a22.77,22.77,0,0,1,3.09,1.26,21,21,0,0,1,1.87,1,1,1,0,1,1-1.06,1.7c-.57-.36-1.18-.67-1.7-.93a20.58,20.58,0,0,0-2.84-1.15A6.86,6.86,0,0,0,30,2.85a20.7,20.7,0,0,0-4-.75A19.08,19.08,0,0,0,24,2,22,22,0,1,0,46,24c0-.35,0-.69,0-1s0-.75-.08-1.08,0-.47-.07-.66,0-.47-.09-.67c-.09-.61-.2-1.17-.33-1.69A22.07,22.07,0,0,0,42,11.32a1,1,0,0,1,1.63-1.15,24,24,0,0,1,3.72,8.22,16.65,16.65,0,0,1,.36,1.84c0,.2.07.45.1.7a7.37,7.37,0,0,1,.08.78c0,.33.08.73.09,1.11s0,.8,0,1.18A24,24,0,0,1,24,48Z"/><path d="M24,41.1A17.1,17.1,0,0,1,24,6.9a16.8,16.8,0,0,1,7.65,1.82,1,1,0,1,1-.9,1.78A14.9,14.9,0,0,0,24,8.9a15.09,15.09,0,1,0,13,7.48,1,1,0,1,1,1.72-1A17.1,17.1,0,0,1,24,41.1Z"/><path d="M24,33.91a9.91,9.91,0,0,1,0-19.82,9.4,9.4,0,0,1,2.05.22,1,1,0,0,1,.77,1.19,1,1,0,0,1-1.2.77A7.38,7.38,0,0,0,24,16.09,7.91,7.91,0,1,0,31.91,24a7.14,7.14,0,0,0-.31-2.16,1,1,0,0,1,.65-1.25,1,1,0,0,1,1.26.65,9.12,9.12,0,0,1,.4,2.76A9.91,9.91,0,0,1,24,33.91Z"/><path d="M25,24a1,1,0,0,1-.69-.27,1,1,0,0,1,0-1.42l18-19a1,1,0,1,1,1.46,1.38l-18,19A1,1,0,0,1,25,24Z"/><path d="M41,7a1,1,0,0,1-1-1V2a1,1,0,0,1,2,0V6A1,1,0,0,1,41,7Z"/><path d="M45,7H41a1,1,0,0,1,0-2h4a1,1,0,0,1,0,2Z"/></g><text x="0" y="63" fill="#000000" font-size="5px" font-weight="bold" font-family="'Helvetica Neue', Helvetica, Arial-Unicode, Arial, Sans-serif">Created by Zenzeta Icons Design</text><text x="0" y="68" fill="#000000" font-size="5px" font-weight="bold" font-family="'Helvetica Neue', Helvetica, Arial-Unicode, Arial, Sans-serif">from the Noun Project</text></svg>